<svg width="39" height="37" viewBox="0 0 39 37" fill="none" xmlns="http://www.w3.org/2000/svg">
<path d="M36.709 12.6667C36.4855 12.6676 36.2648 12.6175 36.0636 12.5201L19.109 3.86673L2.15429 12.4614C1.79254 12.6326 1.37761 12.653 1.00078 12.5182C0.62396 12.3834 0.316111 12.1045 0.144957 11.7427C-0.0261956 11.381 -0.0466316 10.966 0.0881445 10.5892C0.222921 10.2124 0.501869 9.90455 0.863624 9.7334L19.109 0.69873L37.3543 9.7334C37.7389 9.82325 38.0726 10.061 38.2832 10.3951C38.4938 10.7292 38.5643 11.1329 38.4794 11.5186C38.3946 11.9043 38.1612 12.2411 37.8298 12.456C37.4984 12.6709 37.0958 12.7466 36.709 12.6667ZM11.7756 27.3334H2.97562V36.1334H11.7756V27.3334ZM23.509 27.3334H14.709V36.1334H23.509V27.3334ZM35.2423 27.3334H26.4423V36.1334H35.2423V27.3334ZM29.3756 15.6001H20.5756V24.4001H29.3756V15.6001ZM17.6423 15.6001H8.84229V24.4001H17.6423V15.6001Z" fill="#2C272B"/>
</svg>
