<svg width="35" height="35" viewBox="0 0 35 35" fill="none" xmlns="http://www.w3.org/2000/svg">
<path d="M35 5.83333V3.88889C35 3.37319 34.7951 2.87861 34.4305 2.51396C34.0658 2.14931 33.5713 1.94444 33.0556 1.94444H13.6111V0H7.77778V1.94444H5.83333V5.83333H7.77778V23.3333H5.83333V19.4444H1.94444V23.3333H0V27.2222H1.94444V35H5.83333V27.2222H15.5556V35H19.4444V27.2222H21.3889V23.3333H19.4444V19.4444H15.5556V23.3333H13.6111V5.83333H29.1667V14.8167C28.2528 15.1472 27.5917 16.0028 27.5917 17.0333C27.5917 17.8889 28.0583 18.6667 28.7778 19.0944V21.3889H29.9833C30.6444 21.3889 31.1694 21.9333 31.1694 22.5944C31.1694 23.2556 30.6444 23.8 29.9833 23.8C29.5556 23.8 29.1667 23.5667 28.9528 23.1972C28.7908 22.9262 28.5289 22.7296 28.2235 22.6497C27.9181 22.5697 27.5935 22.6127 27.3194 22.7694C26.7361 23.0806 26.5417 23.8194 26.8722 24.4028C27.5139 25.4917 28.7 26.1917 29.9833 26.1917C31.9472 26.1917 33.5611 24.5778 33.5611 22.5944C33.5611 21.0778 32.5889 19.7167 31.1694 19.2111V19.0944C31.9083 18.6667 32.375 17.8889 32.375 17.0333C32.375 16.1389 31.85 15.3806 31.1111 14.9722V5.83333H35ZM11.6667 20.7278L9.72222 22.6722V19.9111L11.6667 17.9667V20.7278ZM11.6667 14.9917L9.72222 16.9361V14.175L11.6667 12.2306V14.9917ZM9.72222 11.1028V8.34167L11.6667 6.39722V9.15833L9.72222 11.1028Z" fill="#2C272B"/>
</svg>
 