<svg width="31" height="35" viewBox="0 0 31 35" fill="none" xmlns="http://www.w3.org/2000/svg">
<path d="M13.5351 0.136258C13.7559 0.00568123 14.0201 -0.0330037 14.2697 0.0286882L20.8721 1.65568C21.1107 1.71509 21.3176 1.86173 21.451 2.06601C21.5845 2.27028 21.6346 2.51699 21.5912 2.75634C26.1878 4.88276 29.6085 8.38453 30.9495 12.3281C31.0187 12.5317 31.0167 12.7524 30.944 12.9548C30.8714 13.1572 30.7322 13.3296 30.5486 13.4447C30.3651 13.5597 30.1479 13.6106 29.9317 13.5892C29.7155 13.5679 29.5127 13.4756 29.3558 13.327C27.0041 11.0987 23.9255 9.15673 20.3337 7.75256L20.2851 7.94465C20.2227 8.1917 20.0636 8.40413 19.8427 8.53525C19.6218 8.66636 19.3573 8.70543 19.1073 8.64385L18.1647 8.41335L16.4019 15.4015C16.6518 15.4632 16.8668 15.6205 16.9994 15.8388C17.1321 16.0571 17.1716 16.3185 17.1093 16.5656L12.643 34.2723C12.5805 34.5193 12.4214 34.7318 12.2005 34.8629C11.9797 34.994 11.7152 35.0331 11.4652 34.9715L6.75004 33.8094C6.50007 33.7477 6.28513 33.5904 6.15247 33.3721C6.01981 33.1538 5.98028 32.8924 6.04258 32.6453L10.5089 14.9386C10.5714 14.6915 10.7305 14.4791 10.9514 14.348C11.1722 14.2169 11.4367 14.1778 11.6867 14.2394L13.4496 7.25121L12.5069 7.01879C12.3829 6.98824 12.2663 6.93384 12.1636 6.85869C12.0609 6.78353 11.9742 6.6891 11.9085 6.5808C11.8428 6.4725 11.7994 6.35246 11.7806 6.22754C11.7619 6.10262 11.7683 5.97528 11.7995 5.85281L11.848 5.66072C8.01142 5.23428 4.3711 5.5205 1.23611 6.39642C1.02702 6.45483 0.804158 6.4423 0.603122 6.36083C0.402085 6.27936 0.234473 6.13366 0.127058 5.94699C0.0196432 5.76033 -0.0213771 5.54347 0.0105499 5.33106C0.0424769 5.11865 0.14551 4.92294 0.303189 4.77519C3.3585 1.91692 8.04252 0.410944 13.1114 0.664501C13.1838 0.444322 13.3343 0.255492 13.5351 0.136258Z" fill="#2C272B"/>
</svg>
 