<svg width="19" height="15" viewBox="0 0 19 15" fill="none" xmlns="http://www.w3.org/2000/svg">
<path d="M18.3081 3.23584V11.9002C18.3081 12.6006 18.0405 13.2746 17.56 13.7843C17.0794 14.2939 16.4223 14.6007 15.723 14.6418L15.5619 14.6464H2.74622C2.04574 14.6464 1.37172 14.3788 0.862073 13.8982C0.352425 13.4177 0.0456718 12.7605 0.00457713 12.0613L0 11.9002V3.23584L8.646 9.00015L8.75219 9.06056C8.87733 9.12171 9.01477 9.15349 9.15405 9.15349C9.29333 9.15349 9.43077 9.12171 9.55591 9.06056L9.6621 9.00015L18.3081 3.23584Z" fill="#2C272B"/>
<path d="M15.5619 0C16.5506 0 17.4175 0.521781 17.9008 1.30628L9.15411 7.13741L0.40741 1.30628C0.636986 0.933552 0.952342 0.621103 1.32718 0.394988C1.70203 0.168873 2.12549 0.0356434 2.56227 0.00640781L2.74627 0H15.5619Z" fill="#2C272B"/>
</svg>
