<svg width="31" height="31" viewBox="0 0 31 31" fill="none" xmlns="http://www.w3.org/2000/svg">
<path d="M28.4167 9.73242V21.958C28.4167 22.9464 28.0391 23.8975 27.361 24.6166C26.6829 25.3358 25.7557 25.7686 24.769 25.8266L24.5417 25.833H6.45834C5.46994 25.8331 4.51888 25.4555 3.79975 24.7774C3.08062 24.0993 2.64778 23.1721 2.58979 22.1854L2.58334 21.958V9.73242L14.7831 17.866L14.933 17.9513C15.1095 18.0376 15.3035 18.0824 15.5 18.0824C15.6965 18.0824 15.8905 18.0376 16.067 17.9513L16.2169 17.866L28.4167 9.73242Z" fill="#2EB2A2"/>
<path d="M24.5417 5.1665C25.9367 5.1665 27.1599 5.90275 27.8419 7.00971L15.5 15.2376L3.15813 7.00971C3.48207 6.48378 3.92704 6.0429 4.45596 5.72384C4.98487 5.40479 5.58239 5.2168 6.19871 5.17555L6.45834 5.1665H24.5417Z" fill="#2EB2A2"/>
</svg>
