<svg width="35" height="35" viewBox="0 0 35 35" fill="none" xmlns="http://www.w3.org/2000/svg">
<g clip-path="url(#clip0_2031_374)">
<path d="M17.5 35C17.5 35 30.625 22.5619 30.625 13.125C30.625 9.64403 29.2422 6.30564 26.7808 3.84422C24.3194 1.38281 20.981 0 17.5 0C14.019 0 10.6806 1.38281 8.21922 3.84422C5.75781 6.30564 4.375 9.64403 4.375 13.125C4.375 22.5619 17.5 35 17.5 35ZM17.5 19.6875C15.7595 19.6875 14.0903 18.9961 12.8596 17.7654C11.6289 16.5347 10.9375 14.8655 10.9375 13.125C10.9375 11.3845 11.6289 9.71532 12.8596 8.48461C14.0903 7.2539 15.7595 6.5625 17.5 6.5625C19.2405 6.5625 20.9097 7.2539 22.1404 8.48461C23.3711 9.71532 24.0625 11.3845 24.0625 13.125C24.0625 14.8655 23.3711 16.5347 22.1404 17.7654C20.9097 18.9961 19.2405 19.6875 17.5 19.6875Z" fill="#2C272B"/>
</g>
<defs>
<clipPath id="clip0_2031_374">
<rect width="35" height="35" fill="white"/>
</clipPath>
</defs>
</svg>
