<svg width="30" height="22" viewBox="0 0 30 22" fill="none" xmlns="http://www.w3.org/2000/svg">
<path d="M21.8182 4.12339H25.9091L30 9.6982V17.868H27.225C27.0608 19.0131 26.4928 20.0602 25.625 20.8175C24.7573 21.5749 23.6479 21.9917 22.5 21.9917C21.3521 21.9917 20.2427 21.5749 19.375 20.8175C18.5072 20.0602 17.9392 19.0131 17.775 17.868H10.8614C10.6993 19.0147 10.1321 20.064 9.26411 20.823C8.3961 21.5821 7.28553 22 6.13636 22C4.9872 22 3.87662 21.5821 3.00862 20.823C2.14062 20.064 1.57347 19.0147 1.41136 17.868H0V1.37446C0 1.00993 0.143668 0.660332 0.3994 0.402571C0.655131 0.144809 1.00198 0 1.36364 0H20.4545C20.8162 0 21.1631 0.144809 21.4188 0.402571C21.6745 0.660332 21.8182 1.00993 21.8182 1.37446V4.12339ZM21.8182 6.87231V10.9957H27.2727V10.604L24.5345 6.87231H21.8182Z" fill="#16A796"/>
</svg>
