<svg width="78" height="34" viewBox="0 0 78 34" fill="none" xmlns="http://www.w3.org/2000/svg">
<g clip-path="url(#clip0_2017_230)">
<path d="M31.07 8.53219C28.665 6.09446 25.025 6.09446 22.555 6.09446H22.035L23.595 4.04163H33.15V2.88691C33.15 2.2454 33.15 1.41144 32.5 0.769927C31.85 0.128418 31.07 0.128418 30.355 0.128418H21.515C21.515 0.128418 17.745 5.13219 16.64 6.54351C15.34 8.21144 15.405 9.81521 18.005 9.81521H23.4C24.375 9.81521 24.895 10.0077 25.22 10.5209C25.675 11.2907 25.675 12.0605 25.675 12.702V16.4869C25.675 17.1284 25.675 18.0907 25.025 18.7322C24.375 19.3737 23.4 19.3737 22.75 19.3737H15.86L13 23.2228H22.555C24.96 23.2228 28.6 23.2228 31.07 20.785C32.045 19.8228 32.63 18.7963 32.955 17.8341C33.475 16.3586 33.475 12.8945 33.02 11.4831C32.695 10.585 32.045 9.49446 31.07 8.53219ZM53.235 19.502H43.94L50.7 10.5209C51.35 9.62276 51.935 8.9171 51.935 7.95483C51.935 6.99257 51.415 6.28691 50.7 5.38879L49.725 4.10578C48.75 2.82276 47.775 1.53974 46.475 0.898229C45.175 0.25672 43.615 0.25672 41.535 0.25672H37.44C36.79 0.25672 36.01 0.25672 35.295 0.898229C34.645 1.53974 34.645 2.3737 34.645 3.01521V4.16993H41.73C42.51 4.16993 43.615 4.16993 44.005 5.06804C44.395 5.96615 43.81 6.73597 43.355 7.37747L31.2 23.4152H50.18L53.235 19.502ZM4.09502 17.0001L12.48 5.902V0.192569H2.99002C2.34002 0.192569 1.56002 0.192569 0.84502 0.834078C0.13002 1.47559 0.19502 2.30955 0.19502 2.95106V4.10578H4.09502V17.0001ZM4.09502 23.3511H12.48V12.2529L4.09502 23.3511ZM64.155 19.502H63.765C63.115 19.502 62.14 19.502 61.49 18.8605C60.84 18.219 60.84 17.2567 60.84 16.6152V6.99257C60.84 6.35106 60.84 5.3888 61.49 4.74729C62.14 4.10578 63.115 4.10578 63.765 4.10578H67.08C67.73 4.10578 68.705 4.10578 69.355 4.74729C70.005 5.3888 70.005 6.35106 70.005 6.99257V11.7397L76.18 3.59257L75.4 2.6303C72.995 0.192569 69.355 0.192569 66.885 0.192569H64.025C61.62 0.192569 57.98 0.192569 55.51 2.6303C53.105 5.06804 53.105 8.53219 53.105 9.87936V13.7284C53.105 15.0114 53.105 18.5397 55.51 20.9775C57.135 22.5812 59.28 23.0945 61.295 23.2869L64.155 19.502ZM66.04 23.3511H66.885C69.29 23.3511 72.93 23.3511 75.4 20.9133C77.805 18.4756 77.805 15.0114 77.805 13.6643V9.81521C77.805 9.36615 77.805 8.66049 77.74 7.89068L66.04 23.3511Z" fill="#2C272B"/>
<path d="M4.08264 29.0776H7.26764V29.7191H4.79764V33.7607H4.08264V29.0776ZM8.11264 29.0776H9.73764C11.2326 29.0776 12.0126 29.0776 12.0126 30.6814C12.0126 32.2852 11.2326 32.2852 9.73764 32.2852H8.82764V33.6965H8.11264V29.0776ZM8.82764 31.6437H10.2576C11.2976 31.6437 11.2976 31.6437 11.2976 30.6814C11.2976 29.7191 11.2976 29.7191 10.2576 29.7191H8.82764V31.6437ZM15.1976 31.6437C15.1976 31.3229 15.1976 31.3229 16.1726 29.0776H16.8226V29.3342L15.3276 32.8625C14.9376 33.8248 14.5476 33.8248 13.7026 33.8248H13.2476V33.1833H13.8326C14.2876 33.1833 14.4176 33.1833 14.6126 32.7984L14.8726 32.2852H13.8976L12.4676 29.3984V29.1418H13.1826C14.2226 31.3871 14.2226 31.3871 14.2226 31.7078H15.1976V31.6437ZM21.5676 29.0776V33.7607H20.8526V29.655H18.3176V33.6965H17.5376V29.0135H21.5676V29.0776ZM26.8976 29.0776V33.7607H26.1826V29.655H23.6476V33.6965H22.8676V29.0135H26.8976V29.0776ZM30.7976 29.0776L32.5526 33.5041V33.7607H31.9026L31.4476 32.6059H28.8476L28.3926 33.7607H27.7426V33.5041L29.4976 29.0776H30.7976ZM29.0426 31.9644H31.1876C30.6026 30.5531 30.4726 30.1682 30.4726 29.7191H29.8226C29.7576 30.1682 29.6276 30.5531 29.0426 31.9644ZM37.7526 31.2588L39.3126 33.4399V33.7607H38.5326L38.1426 33.2474C37.3626 32.1569 37.2326 31.9003 37.2326 31.7078H35.9326V33.8248H35.2176V29.1418H35.9326V31.0663H37.2326C37.2326 30.8739 37.3626 30.5531 38.1426 29.5908L38.5326 29.0776H39.2476V29.2701L37.7526 31.2588ZM42.3676 28.9493C44.4476 28.9493 44.4476 30.1682 44.4476 31.1946V31.5795C44.4476 32.6059 44.4476 33.8248 42.3676 33.8248H42.0426C39.9626 33.8248 39.9626 32.6059 39.9626 31.5795V31.1946C39.9626 30.1682 39.9626 28.9493 42.0426 28.9493H42.3676ZM40.7426 31.4512C40.7426 33.1191 40.7426 33.1833 42.1726 33.1833C43.6026 33.1833 43.6026 33.1191 43.6026 31.4512V31.2588C43.6026 29.5908 43.6026 29.5267 42.1726 29.5267C40.7426 29.5267 40.7426 29.5908 40.7426 31.2588V31.4512ZM46.8526 29.0776C48.2176 32.7342 48.2176 32.7342 48.2176 33.1191H48.4126C48.4126 32.7342 48.4126 32.7342 49.7776 29.0776H51.0776V33.7607H50.3626V29.655H50.1676C50.1676 29.9758 50.1676 29.9758 48.7376 33.6965H47.8276C46.3976 29.9758 46.3976 29.9758 46.3976 29.655H46.2026V33.6965H45.4876V29.0135H46.8526V29.0776ZM56.4726 29.0776V33.7607H55.7576V29.655H53.2226V33.6965H52.5076V29.0135H56.4726V29.0776ZM60.3076 29.0776L62.0626 33.5041V33.7607H61.4126L60.9576 32.6059H58.3576L57.8376 33.7607H57.1876V33.5041L58.9426 29.0776H60.3076ZM58.5526 31.9644H60.6976C60.1126 30.5531 59.9826 30.1682 59.9826 29.7191H59.2676C59.2676 30.1682 59.1376 30.5531 58.5526 31.9644ZM66.1576 29.0776H66.8726V33.7607H66.1576V31.6437H63.6226V33.7607H62.9076V29.0776H63.6226V31.0022H66.1576V29.0776ZM69.1476 32.8625C69.1476 32.6701 69.1476 32.4776 69.4076 32.0927L71.4876 29.0776H72.3326V33.7607H71.6176V29.9758H71.4226C71.4226 30.1682 71.4226 30.4248 71.0326 30.938L69.0826 33.8248H68.2376V29.1418H68.9526V32.8625H69.1476ZM74.5426 32.8625C74.5426 32.6701 74.5426 32.4776 74.8027 32.0927L76.8826 29.0776H77.7276V33.7607H77.0126V29.9758H76.8176C76.8176 30.1682 76.8176 30.4248 76.4277 30.938L74.4776 33.8248H73.6326V29.1418H74.3476V32.8625H74.5426ZM75.6476 28.6286C75.1926 28.6286 74.8676 28.6286 74.4776 28.1154L74.9326 27.7305C75.1276 28.0512 75.1276 28.1154 75.5176 28.1154H75.9726C76.3626 28.1154 76.3626 28.0512 76.5576 27.7305L77.0126 28.1154C76.6227 28.6286 76.2976 28.6286 75.8426 28.6286H75.6476Z" fill="#2C272B"/>
</g>
<defs>
<clipPath id="clip0_2017_230">
<rect width="78" height="34" fill="white"/>
</clipPath>
</defs>
</svg>
