<svg width="33" height="37" viewBox="0 0 33 37" fill="none" xmlns="http://www.w3.org/2000/svg">
<g clip-path="url(#clip0_2017_218)">
<path d="M17.3882 32.2151V36.7929C17.3882 36.8779 17.4588 36.946 17.5471 36.929C18.6593 36.8439 19.7361 36.6567 20.76 36.3334C20.8129 36.3164 20.8659 36.2653 20.8659 36.1973V24.9654C20.8659 24.8973 20.8129 24.8293 20.7424 24.8293C19.7009 24.7101 18.6239 24.6421 17.5471 24.6081C17.4588 24.6081 17.3882 24.6761 17.3882 24.7442V28.7944H15.5169V24.7442C15.5169 24.659 15.4463 24.591 15.358 24.6081C14.2635 24.6421 13.2043 24.7101 12.1628 24.8122C12.0921 24.8122 12.0392 24.8804 12.0392 24.9483V36.2142C12.0392 36.2824 12.0745 36.3334 12.1451 36.3504C13.169 36.6397 14.2459 36.8439 15.358 36.912C15.4463 36.912 15.5169 36.8439 15.5169 36.7759V32.181H17.3882V32.2151Z" fill="#2C272B"/>
<path d="M11.0514 24.9823C9.72743 25.1695 8.43871 25.4078 7.23826 25.7312C7.20295 25.7481 7.16766 25.7652 7.15 25.8163L5.64945 28.8114H5.4023V26.4629C5.4023 26.3609 5.29638 26.2928 5.20811 26.3268C4.32543 26.6331 3.49571 26.9564 2.71895 27.3308C2.56007 27.3989 2.41885 27.484 2.27761 27.5521C2.207 27.5861 2.1717 27.6712 2.22466 27.7393C3.37214 29.8325 4.76678 31.6534 6.3909 33.117C6.46152 33.185 6.58509 33.1679 6.6204 33.0829L7.52072 31.3301H7.75022V34.1551C7.75022 34.2061 7.76788 34.2401 7.80319 34.2741C8.79178 34.9889 9.86865 35.5675 11.0161 36.01C11.1044 36.044 11.2103 35.976 11.2103 35.8739V25.1185C11.228 25.0334 11.1397 24.9654 11.0514 24.9823Z" fill="#2C272B"/>
<path d="M29.3045 27.1776C28.9515 26.9564 27.751 26.3098 27.0096 26.0545C26.939 26.0375 26.8684 26.0545 26.8331 26.1225C26.5682 26.6501 25.4737 28.8114 25.4737 28.8114H25.2266L25.209 25.7141C25.209 25.646 25.156 25.595 25.1031 25.578C24.0791 25.3398 23.0023 25.1355 21.9077 24.9823C21.8195 24.9654 21.7313 25.0334 21.7313 25.1185V35.8057C21.7313 35.9079 21.8371 35.976 21.943 35.942C23.0905 35.4824 24.1675 34.8869 25.156 34.172C25.1913 34.138 25.209 34.104 25.209 34.0529V32.215C25.8445 32.1639 26.5153 32.4021 26.9036 32.7596C27.6628 32.0278 28.4572 31.1598 29.1104 30.275C29.1633 30.2239 29.1456 30.1389 29.0927 30.0878C28.8632 29.9006 28.5808 29.6964 28.2983 29.5432L29.3752 27.3649C29.4105 27.2968 29.3752 27.2287 29.3045 27.1776Z" fill="#2C272B"/>
<path d="M22.1906 1.29336C22.2789 1.22529 22.2611 1.08915 22.1554 1.03809C20.9195 0.527556 19.5955 0.17018 18.2361 0C16.8239 4.44168 16.8062 9.71724 16.6121 23.1444C16.7357 23.1444 16.8769 23.1444 17.0004 23.1444C17.4594 12.7805 17.6006 4.33957 22.1906 1.29336Z" fill="#2C272B"/>
<path d="M19.7013 13.1887C21.3961 8.25353 24.1147 5.81996 28.1574 5.64978C28.2809 5.64978 28.3339 5.49662 28.2632 5.41154C27.2746 4.28835 26.1625 3.31832 24.9621 2.50146C21.0782 3.79483 19.3658 7.02823 18.3949 12.9335C17.9536 15.6903 17.6182 19.1279 17.4239 23.1612C17.5475 23.1612 17.6887 23.1612 17.8124 23.1783C18.0241 19.9448 18.8185 15.7754 19.7013 13.1887Z" fill="#2C272B"/>
<path d="M20.5484 17.0689C23.6731 11.2147 29.1634 10.4319 32.1998 13.325C32.3056 13.4271 32.4822 13.325 32.4469 13.1888C31.9527 11.3169 31.2111 9.564 30.2402 7.98134C23.267 6.12638 19.0303 13.8185 18.2181 23.2124C18.3416 23.2124 18.483 23.2294 18.6065 23.2294C18.9948 20.6427 19.3832 19.2301 20.5484 17.0689Z" fill="#2C272B"/>
<path d="M32.7652 16.3884C30.1348 13.3762 25.2272 12.6104 21.8554 16.7457C20.6372 18.2262 19.4544 20.4046 18.9954 23.2466C19.1366 23.2466 19.2603 23.2636 19.4015 23.2636C20.1076 20.4217 21.9436 18.924 23.6736 18.4305C27.6634 17.2563 31.6531 20.0642 32.0061 23.3317C32.0238 23.4678 32.2532 23.4507 32.2886 23.3146C32.6593 21.7659 32.8711 20.1323 32.8711 18.4305C32.8534 17.7328 32.8182 17.0521 32.7652 16.3884Z" fill="#2C272B"/>
<path d="M14.6175 0.0170898C13.2582 0.18727 11.9341 0.527627 10.6984 1.05518C10.5925 1.10624 10.5748 1.24238 10.6631 1.31045C15.253 4.33964 15.3943 12.7805 15.8356 23.1615C15.9591 23.1615 16.1003 23.1615 16.224 23.1615C16.0298 9.73434 16.0298 4.45876 14.6175 0.0170898Z" fill="#2C272B"/>
<path d="M14.4581 12.9505C13.5049 7.04532 11.7748 3.81192 7.89101 2.51855C6.69056 3.33541 5.57839 4.30544 4.58979 5.42861C4.51918 5.51371 4.57215 5.64985 4.69572 5.66687C8.73838 5.82003 11.4747 8.2536 13.1694 13.1888C14.0521 15.7585 14.8289 19.945 15.0583 23.1783C15.182 23.1783 15.3232 23.1612 15.4467 23.1612C15.2349 19.145 14.9171 15.7075 14.4581 12.9505Z" fill="#2C272B"/>
<path d="M2.63035 7.98136C1.6594 9.547 0.917959 11.2998 0.42366 13.1888C0.388352 13.325 0.564888 13.4271 0.67081 13.325C3.72488 10.449 9.19748 11.2318 12.3222 17.069C13.4696 19.2132 13.8757 20.6256 14.2641 23.2124C14.3877 23.2124 14.5289 23.1954 14.6524 23.1954C13.8404 13.8185 9.60351 6.1264 2.63035 7.98136Z" fill="#2C272B"/>
<path d="M11.0158 16.7457C7.64399 12.6104 2.71865 13.3762 0.105921 16.3884C0.0353072 17.0521 0 17.7328 0 18.4305C0 20.1153 0.194189 21.749 0.582568 23.3146C0.617875 23.4507 0.847371 23.4678 0.865025 23.3317C1.34167 20.1153 4.92534 17.4094 9.19751 18.4305C10.9452 18.839 12.7459 20.4217 13.4697 23.2636C13.6109 23.2466 13.7345 23.2466 13.8757 23.2466C13.4167 20.4046 12.2339 18.2262 11.0158 16.7457Z" fill="#2C272B"/>
</g>
<defs>
<clipPath id="clip0_2017_218">
<rect width="33" height="37" fill="white"/>
</clipPath>
</defs>
</svg>
