<svg width="188" height="30" viewBox="0 0 188 30" fill="none" xmlns="http://www.w3.org/2000/svg">
<path d="M5 10.4997L0 8V27.9997H5V10.4997Z" fill="#16A796"/>
<path d="M41.5 10.4997L46.5 8V28H41.5V10.4997Z" fill="#16A796"/>
<path d="M25.5 14H21V28H25.5V14Z" fill="#16A796"/>
<path d="M0 7.16096V2C21.4857 13.5605 40.13 6.81689 46.5 2V7.16096C27.4934 17.4829 7.74725 11.2897 0 7.16096Z" fill="#16A796"/>
<path d="M69.5334 4.28735V18.9999H66.4587V6.81607H60.5105V18.9999H57.4358V4.28735H69.5334ZM72.4949 18.9999V4.28735H82.4087V6.85199H75.6055V10.3577H81.8986V12.9224H75.6055V16.4353H82.4374V18.9999H72.4949ZM84.3214 6.85199V4.28735H96.4046V6.85199H91.9003V18.9999H88.8256V6.85199H84.3214ZM98.3946 18.9999V4.28735H104.199C105.315 4.28735 106.266 4.50047 107.051 4.92672C107.837 5.34817 108.435 5.93485 108.847 6.68676C109.264 7.43388 109.472 8.29595 109.472 9.27295C109.472 10.25 109.261 11.112 108.84 11.8591C108.418 12.6063 107.808 13.1882 107.008 13.6048C106.213 14.0215 105.25 14.2298 104.12 14.2298H100.42V11.737H103.617C104.216 11.737 104.709 11.634 105.097 11.4281C105.49 11.2174 105.782 10.9276 105.974 10.5589C106.17 10.1853 106.268 9.75666 106.268 9.27295C106.268 8.78445 106.17 8.35821 105.974 7.99422C105.782 7.62545 105.49 7.34049 105.097 7.13934C104.704 6.93341 104.206 6.83044 103.603 6.83044H101.505V18.9999H98.3946ZM112.329 18.9999H108.996L114.075 4.28735H118.084L123.156 18.9999H119.822L116.137 7.6494H116.022L112.329 18.9999ZM112.121 13.2169H119.995V15.645H112.121V13.2169ZM122.568 6.85199V4.28735H134.652V6.85199H130.147V18.9999H127.073V6.85199H122.568ZM136.641 18.9999V4.28735H146.555V6.85199H139.752V10.3577H146.045V12.9224H139.752V16.4353H146.584V18.9999H136.641ZM149.028 18.9999V4.28735H154.833C155.949 4.28735 156.899 4.50047 157.685 4.92672C158.47 5.34817 159.069 5.93485 159.481 6.68676C159.897 7.43388 160.106 8.29595 160.106 9.27295C160.106 10.25 159.895 11.112 159.474 11.8591C159.052 12.6063 158.441 13.1882 157.642 13.6048C156.847 14.0215 155.884 14.2298 154.754 14.2298H151.054V11.737H154.251C154.85 11.737 155.343 11.634 155.731 11.4281C156.123 11.2174 156.416 10.9276 156.607 10.5589C156.804 10.1853 156.902 9.75666 156.902 9.27295C156.902 8.78445 156.804 8.35821 156.607 7.99422C156.416 7.62545 156.123 7.34049 155.731 7.13934C155.338 6.93341 154.84 6.83044 154.237 6.83044H152.139V18.9999H149.028ZM162.126 18.9999V4.28735H167.931C169.047 4.28735 169.997 4.50047 170.783 4.92672C171.568 5.34817 172.167 5.93485 172.579 6.68676C172.995 7.43388 173.204 8.29595 173.204 9.27295C173.204 10.25 172.993 11.112 172.572 11.8591C172.15 12.6063 171.539 13.1882 170.74 13.6048C169.945 14.0215 168.982 14.2298 167.852 14.2298H164.152V11.737H167.349C167.948 11.737 168.441 11.634 168.829 11.4281C169.221 11.2174 169.514 10.9276 169.705 10.5589C169.902 10.1853 170 9.75666 170 9.27295C170 8.78445 169.902 8.35821 169.705 7.99422C169.514 7.62545 169.221 7.34049 168.829 7.13934C168.436 6.93341 167.938 6.83044 167.334 6.83044H165.237V18.9999H162.126ZM176.061 18.9999H172.728L177.807 4.28735H181.815L186.887 18.9999H183.554L179.869 7.6494H179.754L176.061 18.9999ZM175.853 13.2169H183.726V15.645H175.853V13.2169Z" fill="#2C272B"/>
<path d="M60.9727 25.1415H60.453C60.4223 24.9921 60.3685 24.8608 60.2917 24.7476C60.2163 24.6345 60.1241 24.5395 60.0151 24.4626C59.9076 24.3844 59.7881 24.3258 59.6568 24.2866C59.5255 24.2475 59.3887 24.228 59.2463 24.228C58.9864 24.228 58.7511 24.2936 58.5401 24.4249C58.3306 24.5562 58.1636 24.7497 58.0393 25.0053C57.9163 25.261 57.8549 25.5746 57.8549 25.9461C57.8549 26.3177 57.9163 26.6313 58.0393 26.8869C58.1636 27.1425 58.3306 27.336 58.5401 27.4673C58.7511 27.5986 58.9864 27.6643 59.2463 27.6643C59.3887 27.6643 59.5255 27.6447 59.6568 27.6056C59.7881 27.5665 59.9076 27.5085 60.0151 27.4317C60.1241 27.3535 60.2163 27.2578 60.2917 27.1446C60.3685 27.0301 60.4223 26.8988 60.453 26.7507H60.9727C60.9336 26.97 60.8623 27.1663 60.759 27.3395C60.6556 27.5127 60.5272 27.6601 60.3735 27.7816C60.2199 27.9017 60.0473 27.9932 59.8559 28.0561C59.6659 28.1189 59.4628 28.1504 59.2463 28.1504C58.8803 28.1504 58.5547 28.061 58.2697 27.8822C57.9848 27.7034 57.7606 27.4491 57.5972 27.1195C57.4337 26.7898 57.3521 26.3987 57.3521 25.9461C57.3521 25.4935 57.4337 25.1024 57.5972 24.7728C57.7606 24.4431 57.9848 24.1889 58.2697 24.0101C58.5547 23.8313 58.8803 23.7419 59.2463 23.7419C59.4628 23.7419 59.6659 23.7733 59.8559 23.8362C60.0473 23.899 60.2199 23.9912 60.3735 24.1127C60.5272 24.2329 60.6556 24.3795 60.759 24.5527C60.8623 24.7246 60.9336 24.9208 60.9727 25.1415ZM61.5778 24.2615V23.8005H64.7961V24.2615H63.4468V28.0917H62.9272V24.2615H61.5778ZM65.598 28.0917V23.8005H67.048C67.3846 23.8005 67.6598 23.8613 67.8735 23.9828C68.0886 24.103 68.248 24.2657 68.3514 24.471C68.4547 24.6764 68.5064 24.9055 68.5064 25.1583C68.5064 25.4111 68.4547 25.6409 68.3514 25.8476C68.2494 26.0544 68.0915 26.2192 67.8778 26.3421C67.6641 26.4637 67.3902 26.5244 67.0564 26.5244H66.0171V26.0635H67.0396C67.2701 26.0635 67.4553 26.0236 67.5949 25.944C67.7346 25.8644 67.8358 25.7568 67.8987 25.6213C67.9629 25.4845 67.9952 25.3301 67.9952 25.1583C67.9952 24.9865 67.9629 24.8328 67.8987 24.6973C67.8358 24.5618 67.7338 24.4557 67.5928 24.3788C67.4517 24.3006 67.2645 24.2615 67.0312 24.2615H66.1177V28.0917H65.598ZM72.964 25.9461C72.964 26.3987 72.8824 26.7898 72.719 27.1195C72.5556 27.4491 72.3314 27.7034 72.0464 27.8822C71.7614 28.061 71.436 28.1504 71.07 28.1504C70.7039 28.1504 70.3784 28.061 70.0935 27.8822C69.8085 27.7034 69.5843 27.4491 69.4209 27.1195C69.2575 26.7898 69.1757 26.3987 69.1757 25.9461C69.1757 25.4935 69.2575 25.1024 69.4209 24.7728C69.5843 24.4431 69.8085 24.1889 70.0935 24.0101C70.3784 23.8313 70.7039 23.7419 71.07 23.7419C71.436 23.7419 71.7614 23.8313 72.0464 24.0101C72.3314 24.1889 72.5556 24.4431 72.719 24.7728C72.8824 25.1024 72.964 25.4935 72.964 25.9461ZM72.4612 25.9461C72.4612 25.5746 72.399 25.261 72.2747 25.0053C72.1518 24.7497 71.9849 24.5562 71.774 24.4249C71.5645 24.2936 71.3298 24.228 71.07 24.228C70.8102 24.228 70.5747 24.2936 70.3638 24.4249C70.1543 24.5562 69.9873 24.7497 69.863 25.0053C69.7401 25.261 69.6786 25.5746 69.6786 25.9461C69.6786 26.3177 69.7401 26.6313 69.863 26.8869C69.9873 27.1425 70.1543 27.336 70.3638 27.4673C70.5747 27.5986 70.8102 27.6643 71.07 27.6643C71.3298 27.6643 71.5645 27.5986 71.774 27.4673C71.9849 27.336 72.1518 27.1425 72.2747 26.8869C72.399 26.6313 72.4612 26.3177 72.4612 25.9461ZM73.8378 23.8005H74.349V27.1781H74.3909L76.7378 23.8005H77.2406V28.0917H76.721V24.7225H76.6791L74.3406 28.0917H73.8378V23.8005ZM78.0457 24.2615V23.8005H81.264V24.2615H79.9146V28.0917H79.395V24.2615H78.0457ZM82.0661 28.0917V23.8005H84.6558V24.2615H82.5857V25.7114H84.5217V26.1724H82.5857V27.6307H84.6894V28.0917H82.0661ZM85.2237 28.0917V27.614H85.3493C85.5281 27.614 85.6671 27.5567 85.7663 27.4422C85.8655 27.3276 85.9368 27.1425 85.9801 26.8869C86.0248 26.6313 86.0547 26.2925 86.0701 25.8707L86.1455 23.8005H88.7605V28.0917H88.2408V24.2615H86.64L86.573 25.9713C86.5562 26.421 86.5151 26.8038 86.4494 27.1195C86.3838 27.4352 86.2685 27.6761 86.1036 27.8424C85.9388 28.0086 85.6985 28.0917 85.3828 28.0917H85.2237ZM90.1842 25.6025H91.4079C91.7152 25.6025 91.9744 25.6528 92.1853 25.7533C92.3976 25.8539 92.5583 25.9957 92.6671 26.1787C92.7775 26.3617 92.8328 26.5775 92.8328 26.8261C92.8328 27.0748 92.7775 27.2941 92.6671 27.4841C92.5583 27.674 92.3976 27.8228 92.1853 27.9304C91.9744 28.0379 91.7152 28.0917 91.4079 28.0917H89.7987V23.8005H90.3183V27.6391H91.4079C91.6034 27.6391 91.769 27.6 91.9045 27.5218C92.0414 27.4422 92.1447 27.3402 92.2146 27.2159C92.2859 27.0901 92.3215 26.9574 92.3215 26.8178C92.3215 26.6124 92.2426 26.4357 92.0847 26.2876C91.9269 26.1382 91.7012 26.0635 91.4079 26.0635H90.1842V25.6025ZM93.6536 28.0917V23.8005H94.1732V25.7114H96.4612V23.8005H96.9808V28.0917H96.4612V26.1724H94.1732V28.0917H93.6536ZM98.4067 25.6025H99.6304C99.9377 25.6025 100.197 25.6528 100.408 25.7533C100.62 25.8539 100.781 25.9957 100.89 26.1787C101 26.3617 101.055 26.5775 101.055 26.8261C101.055 27.0748 101 27.2941 100.89 27.4841C100.781 27.674 100.62 27.8228 100.408 27.9304C100.197 28.0379 99.9377 28.0917 99.6304 28.0917H98.0212V23.8005H98.5409V27.6391H99.6304C99.826 27.6391 99.9914 27.6 100.127 27.5218C100.264 27.4422 100.367 27.3402 100.437 27.2159C100.508 27.0901 100.544 26.9574 100.544 26.8178C100.544 26.6124 100.465 26.4357 100.307 26.2876C100.149 26.1382 99.9238 26.0635 99.6304 26.0635H98.4067V25.6025ZM101.994 23.8005V28.0917H101.474V23.8005H101.994ZM103.034 28.0917V23.8005H105.624V24.2615H103.554V25.7114H105.49V26.1724H103.554V27.6307H105.657V28.0917H103.034ZM108.22 23.8005H108.84L110.298 27.3625H110.349L111.807 23.8005H112.427V28.0917H111.941V24.8314H111.899L110.558 28.0917H110.089L108.748 24.8314H108.706V28.0917H108.22V23.8005ZM113.645 28.0917H113.1L114.676 23.8005H115.212L116.788 28.0917H116.243L114.961 24.4794H114.928L113.645 28.0917ZM113.846 26.4155H116.042V26.8764H113.846V26.4155ZM116.721 24.2615V23.8005H119.939V24.2615H118.59V28.0917H118.07V24.2615H116.721ZM120.741 28.0917V23.8005H123.331V24.2615H121.261V25.7114H123.197V26.1724H121.261V27.6307H123.364V28.0917H120.741ZM124.267 28.0917V23.8005H125.717C126.054 23.8005 126.329 23.8613 126.543 23.9828C126.758 24.103 126.917 24.2657 127.021 24.471C127.124 24.6764 127.176 24.9055 127.176 25.1583C127.176 25.4111 127.124 25.6409 127.021 25.8476C126.919 26.0544 126.761 26.2192 126.547 26.3421C126.333 26.4637 126.059 26.5244 125.726 26.5244H124.686V26.0635H125.709C125.939 26.0635 126.124 26.0236 126.264 25.944C126.404 25.8644 126.505 25.7568 126.568 25.6213C126.632 25.4845 126.664 25.3301 126.664 25.1583C126.664 24.9865 126.632 24.8328 126.568 24.6973C126.505 24.5618 126.403 24.4557 126.262 24.3788C126.121 24.3006 125.934 24.2615 125.7 24.2615H124.787V28.0917H124.267ZM128.013 23.8005H128.524V27.1781H128.566L130.913 23.8005H131.415V28.0917H130.896V24.7225H130.854L128.515 28.0917H128.013V23.8005ZM132.631 28.0917H132.086L133.662 23.8005H134.198L135.774 28.0917H135.229L133.947 24.4794H133.913L132.631 28.0917ZM132.832 26.4155H135.028V26.8764H132.832V26.4155ZM136.074 28.0917V27.614H136.199C136.378 27.614 136.517 27.5567 136.616 27.4422C136.716 27.3276 136.787 27.1425 136.83 26.8869C136.875 26.6313 136.905 26.2925 136.92 25.8707L136.996 23.8005H139.611V28.0917H139.091V24.2615H137.49L137.423 25.9713C137.406 26.421 137.365 26.8038 137.299 27.1195C137.234 27.4352 137.119 27.6761 136.954 27.8424C136.789 28.0086 136.549 28.0917 136.233 28.0917H136.074ZM141.034 25.6025H142.258C142.565 25.6025 142.824 25.6528 143.035 25.7533C143.248 25.8539 143.408 25.9957 143.517 26.1787C143.628 26.3617 143.683 26.5775 143.683 26.8261C143.683 27.0748 143.628 27.2941 143.517 27.4841C143.408 27.674 143.248 27.8228 143.035 27.9304C142.824 28.0379 142.565 28.0917 142.258 28.0917H140.649V23.8005H141.168V27.6391H142.258C142.454 27.6391 142.619 27.6 142.755 27.5218C142.891 27.4422 142.995 27.3402 143.065 27.2159C143.136 27.0901 143.172 26.9574 143.172 26.8178C143.172 26.6124 143.093 26.4357 142.935 26.2876C142.777 26.1382 142.551 26.0635 142.258 26.0635H141.034V25.6025ZM144.621 23.8005V28.0917H144.102V23.8005H144.621Z" fill="#2C272B"/>
</svg>
