<svg width="156" height="69" viewBox="0 0 156 69" fill="none" xmlns="http://www.w3.org/2000/svg">
<g clip-path="url(#clip0_2017_289)">
<path d="M110.409 6.13338V8.64695H132.051C133.49 8.64695 135.66 8.64695 137.104 10.0817C138.549 11.522 138.549 13.6796 138.549 15.1198V36.696C138.549 38.1362 138.549 40.2939 137.104 41.7286C135.66 43.1689 133.49 43.1689 132.051 43.1689H121.614C119.812 43.1689 117.461 43.1689 116.561 41.192C115.665 39.2096 116.92 37.4134 118.011 35.9786L132.073 17.3048H110.43L101.752 28.8048C100.301 30.7324 99.0491 32.4027 99.0491 34.5548C99.0491 36.7124 100.214 38.2677 101.752 40.3048L103.916 43.1798C106.08 46.0548 108.244 48.9298 111.112 50.3536C114.001 51.7829 117.429 51.7829 122.098 51.7829H131.49C136.907 51.7829 145.003 51.7829 150.441 46.3943C155.846 41.0003 155.846 33.0872 155.846 30.2396V21.5872C155.846 18.7067 155.846 10.7991 150.441 5.43243C145.025 0.0329069 136.929 0.049335 131.49 0.0438588L116.55 0.0356445C115.116 0.0356445 113.303 0.0356444 111.859 1.47588C110.425 2.91612 110.425 4.71231 110.425 6.15255" fill="#2C272B"/>
<path d="M84.5915 17.25H106.014L80.1972 51.75H58.2253L84.5915 17.25Z" fill="#2C272B"/>
<path d="M-2.68966e-06 23.3834C-2.68966e-06 21.9486 -2.6226e-06 20.147 1.44465 18.7067C2.8838 17.272 4.69648 17.272 6.13563 17.272H42.3891C47.0746 17.272 50.5187 17.272 53.3751 18.7067C56.2534 20.1524 58.4176 23.0274 60.5708 25.8805L62.7406 28.7555C64.2841 30.7982 65.4541 32.3534 65.4541 34.5055C65.4541 36.6632 64.1907 38.3334 62.7406 40.2555L54.0617 51.7555H32.4194L46.4814 33.0817C47.5635 31.6415 48.8324 29.8508 47.926 27.8684C47.0307 25.897 44.6852 25.897 42.8835 25.897H25.9103V69.0494H8.60746V25.897H-0.0714111V23.3779" fill="#2C272B"/>
</g>
<defs>
<clipPath id="clip0_2017_289">
<rect width="156" height="69" fill="white"/>
</clipPath>
</defs>
</svg>
