<svg width="155" height="38" viewBox="0 0 155 38" fill="none" xmlns="http://www.w3.org/2000/svg">
<path fill-rule="evenodd" clip-rule="evenodd" d="M102.624 0H155V38H102.624L83.6743 19L102.624 0ZM117.368 9.8821V14.1978H116.761V10.3894H114.941V14.1978H114.334V9.8821H117.368ZM121.154 12.4504C121.154 12.5462 121.15 12.6445 121.141 12.7444H118.995C119.021 13.1078 119.114 13.3753 119.276 13.5466C119.365 13.6399 119.467 13.708 119.583 13.7505C119.68 13.7855 119.786 13.8031 119.902 13.8031C120.064 13.8031 120.213 13.7802 120.349 13.7341C120.486 13.6885 120.628 13.6155 120.778 13.5152L121.033 13.8597C120.675 14.135 120.284 14.2728 119.858 14.2728C119.39 14.2728 119.023 14.1228 118.759 13.8218C118.499 13.5213 118.369 13.1078 118.369 12.5817C118.369 12.2392 118.425 11.9366 118.535 11.6735C118.583 11.5626 118.639 11.4615 118.703 11.3706C118.793 11.2429 118.899 11.1353 119.021 11.0472C119.234 10.8967 119.483 10.8217 119.768 10.8217C120.215 10.8217 120.558 10.9656 120.797 11.2539C121.035 11.5418 121.154 11.9407 121.154 12.4504ZM120.573 12.2812C120.573 11.9553 120.507 11.707 120.375 11.5357C120.334 11.4827 120.287 11.4378 120.234 11.4011C120.114 11.3196 119.963 11.2788 119.781 11.2788C119.3 11.2788 119.038 11.6254 118.995 12.3187H120.573V12.2812ZM123.639 10.8217C124.069 10.8217 124.384 10.9721 124.583 11.2727C124.784 11.5732 124.884 11.9973 124.884 12.5442C124.884 13.0621 124.769 13.4797 124.539 13.7969C124.309 14.1142 123.983 14.2728 123.562 14.2728C123.187 14.2728 122.893 14.1476 122.681 13.8973V15.4632L122.093 15.5321V10.8967H122.597L122.642 11.3416C122.765 11.1744 122.914 11.0472 123.089 10.9595C123.175 10.9142 123.264 10.88 123.354 10.8571C123.447 10.8335 123.541 10.8217 123.639 10.8217ZM123.422 13.8031C123.975 13.8031 124.252 13.3834 124.252 12.5442C124.252 11.7005 123.998 11.2788 123.491 11.2788C123.325 11.2788 123.175 11.3269 123.038 11.4232C122.902 11.519 122.783 11.6421 122.681 11.7926V13.4022C122.721 13.4642 122.767 13.5192 122.817 13.5678C122.872 13.6208 122.933 13.666 123 13.7031C123.127 13.7696 123.268 13.8031 123.422 13.8031ZM127.661 12.4064C128.231 12.4606 128.517 12.7195 128.517 13.1832C128.517 13.2672 128.509 13.3463 128.494 13.4197C128.468 13.5437 128.421 13.6522 128.352 13.746C128.293 13.8263 128.218 13.8952 128.127 13.9535C127.872 14.1162 127.528 14.1978 127.098 14.1978H125.885V10.9407C126.281 10.8612 126.649 10.8217 126.99 10.8217C127.408 10.8217 127.737 10.8987 127.98 11.0533C128.017 11.0765 128.051 11.1014 128.082 11.1275C128.11 11.1516 128.136 11.1764 128.16 11.203C128.221 11.2715 128.267 11.3485 128.298 11.4342C128.329 11.5202 128.344 11.6144 128.344 11.7172C128.344 11.9052 128.287 12.0577 128.172 12.1747C128.057 12.2914 127.887 12.3688 127.661 12.4064ZM126.996 11.2666C126.937 11.2666 126.878 11.2678 126.82 11.2706C126.702 11.2764 126.586 11.2874 126.473 11.3041V12.2371H127.105C127.31 12.2371 127.467 12.1996 127.578 12.1246C127.688 12.0495 127.744 11.9219 127.744 11.7425C127.744 11.6385 127.72 11.5524 127.672 11.4843C127.643 11.4427 127.605 11.4077 127.558 11.3791C127.531 11.362 127.499 11.3469 127.464 11.3339C127.444 11.3257 127.421 11.3184 127.398 11.3118C127.29 11.2817 127.156 11.2666 126.996 11.2666ZM127.098 13.7468C127.225 13.7468 127.338 13.7362 127.437 13.715C127.479 13.706 127.518 13.695 127.554 13.6819C127.602 13.6652 127.647 13.6452 127.686 13.6216C127.827 13.538 127.897 13.3875 127.897 13.1706C127.897 12.9911 127.838 12.8615 127.718 12.7823C127.599 12.7028 127.397 12.6633 127.112 12.6633H126.473V13.7468H127.098ZM131.696 13.4275C131.696 13.5608 131.719 13.6611 131.766 13.728C131.813 13.7908 131.883 13.8385 131.976 13.872L131.842 14.2728C131.668 14.252 131.527 14.2039 131.421 14.1289C131.399 14.1134 131.378 14.0959 131.359 14.0767C131.34 14.0583 131.322 14.0384 131.305 14.0163C131.255 13.9519 131.215 13.8724 131.185 13.7782C131.043 13.9845 130.859 14.1264 130.633 14.2035C130.498 14.2496 130.348 14.2728 130.182 14.2728C129.85 14.2728 129.588 14.1811 129.396 13.9972C129.204 13.8137 129.109 13.5735 129.109 13.277C129.109 13.049 129.163 12.8553 129.271 12.6959C129.329 12.6103 129.403 12.5348 129.492 12.4692C129.653 12.3529 129.854 12.2726 130.096 12.2282C130.246 12.2008 130.41 12.187 130.591 12.187H131.108V11.9427C131.108 11.8526 131.1 11.7726 131.083 11.7025C131.073 11.6609 131.06 11.623 131.044 11.5883C131.017 11.5296 130.981 11.4807 130.936 11.4419C130.82 11.3416 130.644 11.2914 130.405 11.2914C130.158 11.2914 129.856 11.3498 129.499 11.4668L129.352 11.0472C129.554 10.9742 129.749 10.9191 129.937 10.8816C130.137 10.8416 130.33 10.8217 130.514 10.8217C130.76 10.8217 130.967 10.8588 131.135 10.9326C131.239 10.9778 131.328 11.037 131.402 11.11C131.598 11.2976 131.696 11.5671 131.696 11.9178V13.4275ZM130.79 13.6962C130.913 13.611 131.018 13.4878 131.108 13.3272V12.5691H130.667C130.046 12.5691 129.735 12.7946 129.735 13.2456C129.735 13.4422 129.784 13.5902 129.881 13.6905C129.94 13.7496 130.014 13.7912 130.104 13.8157C130.167 13.8324 130.237 13.8406 130.316 13.8406C130.494 13.8406 130.652 13.7925 130.79 13.6962ZM135.208 10.8967V14.1978H134.621V12.9324H133.886L133.177 14.1978H132.519L133.324 12.8011C132.928 12.6172 132.73 12.3187 132.73 11.9052C132.73 11.5798 132.85 11.331 133.087 11.1597C133.326 10.9844 133.661 10.8967 134.09 10.8967H135.208ZM134.621 11.3416H134.078C133.925 11.3416 133.795 11.36 133.689 11.3967C133.656 11.4081 133.624 11.4215 133.596 11.437C133.572 11.4501 133.549 11.4639 133.528 11.4794C133.479 11.5157 133.44 11.561 133.411 11.6152C133.37 11.6931 133.349 11.7898 133.349 11.9052C133.349 11.9831 133.357 12.0528 133.373 12.1144C133.399 12.218 133.447 12.2987 133.516 12.3562C133.582 12.4084 133.67 12.4459 133.779 12.4683C133.862 12.4855 133.957 12.494 134.065 12.494H134.621V11.3416ZM116.288 20.8791V19.4257H114.889V20.8791H114.302V17.578H114.889V18.9625H116.288V17.578H116.876V20.8791H116.288ZM120.63 19.1317C120.63 19.2276 120.626 19.3258 120.617 19.4257H118.471C118.483 19.5921 118.509 19.7381 118.549 19.8641C118.597 20.0138 118.664 20.1349 118.752 20.2279C118.914 20.3987 119.123 20.4844 119.378 20.4844C119.54 20.4844 119.689 20.4615 119.825 20.4155C119.962 20.3698 120.104 20.2968 120.254 20.1965L120.509 20.5411C120.151 20.8163 119.76 20.9542 119.334 20.9542C118.866 20.9542 118.499 20.8041 118.235 20.5031C118.114 20.3633 118.021 20.1989 117.956 20.0101C117.882 19.7932 117.845 19.544 117.845 19.263C117.845 19.1701 117.849 19.0799 117.858 18.9927C117.862 18.9482 117.867 18.9046 117.873 18.8618C117.9 18.6791 117.947 18.5098 118.011 18.3549C118.126 18.0878 118.288 17.879 118.497 17.7285C118.629 17.6355 118.773 17.5715 118.932 17.536C119.031 17.514 119.135 17.503 119.244 17.503C119.691 17.503 120.034 17.6469 120.273 17.9352C120.511 18.2232 120.63 18.622 120.63 19.1317ZM120.049 18.9625C120.049 18.6367 119.983 18.3883 119.851 18.217C119.719 18.0458 119.521 17.9601 119.257 17.9601C118.987 17.9601 118.786 18.069 118.654 18.2872C118.55 18.458 118.49 18.6954 118.471 19H120.049V18.9625ZM123.115 17.503C123.545 17.503 123.86 17.6535 124.059 17.954C124.176 18.1285 124.258 18.3451 124.307 18.6032C124.342 18.7892 124.36 18.9967 124.36 19.2255C124.36 19.7434 124.245 20.161 124.015 20.4783C123.785 20.7955 123.459 20.9542 123.038 20.9542C122.663 20.9542 122.369 20.829 122.157 20.5786V22.1445L121.569 22.2134V17.578H122.073L122.118 18.0229C122.179 17.9401 122.246 17.8667 122.32 17.8035C122.395 17.7391 122.477 17.6849 122.565 17.6408C122.74 17.5491 122.923 17.503 123.115 17.503ZM122.898 20.4844C123.451 20.4844 123.728 20.0648 123.728 19.2255C123.728 18.3818 123.474 17.9601 122.967 17.9601C122.801 17.9601 122.651 18.0082 122.514 18.1045C122.378 18.2003 122.259 18.3235 122.157 18.4739V20.0835C122.241 20.2132 122.348 20.3131 122.476 20.3845C122.603 20.4509 122.744 20.4844 122.898 20.4844ZM126.684 20.8979C126.552 21.282 126.367 21.585 126.128 21.806C125.894 22.0316 125.557 22.1673 125.119 22.2134L125.055 21.7624C125.164 21.7441 125.262 21.7212 125.349 21.6947C125.439 21.667 125.518 21.6352 125.586 21.5993C125.664 21.5573 125.732 21.5079 125.791 21.4513C125.832 21.4121 125.868 21.3697 125.898 21.324C125.979 21.2151 126.054 21.0671 126.122 20.8791H125.924L124.793 17.578H125.419L126.32 20.4595L127.202 17.578H127.808L126.684 20.8979ZM131.113 20.4155V21.8187H130.634L130.538 20.8791H128.379L128.284 21.8187H127.805V20.4155H128.041C128.1 20.3771 128.151 20.3355 128.196 20.2915C128.23 20.2593 128.259 20.2254 128.284 20.1899C128.316 20.1418 128.347 20.0749 128.376 19.9893C128.4 19.9188 128.423 19.8352 128.443 19.7389C128.477 19.595 128.507 19.4058 128.532 19.1717C128.544 19.0599 128.555 18.938 128.565 18.8059L128.654 17.578H130.762V20.4155H131.113ZM130.174 18.0356H129.184L129.133 18.7309C129.104 19.1191 129.07 19.4176 129.031 19.6264C128.992 19.8352 128.937 19.9958 128.865 20.1088C128.841 20.1492 128.813 20.1883 128.78 20.2258C128.721 20.2935 128.65 20.3567 128.565 20.4155H130.174V18.0356ZM133.96 20.8791V19.4257H132.561V20.8791H131.973V17.578H132.561V18.9625H133.96V17.578H134.547V20.8791H133.96ZM138.042 20.274C138.053 20.3286 138.072 20.3739 138.097 20.4093C138.144 20.4721 138.214 20.5199 138.308 20.5533L138.174 20.9542C138.085 20.9436 138.005 20.926 137.934 20.9011C137.865 20.8771 137.805 20.8469 137.752 20.8102C137.646 20.7352 137.567 20.6181 137.516 20.4595C137.29 20.7894 136.956 20.9542 136.513 20.9542C136.181 20.9542 135.919 20.8624 135.727 20.6785C135.536 20.495 135.44 20.2548 135.44 19.9583C135.44 19.7679 135.478 19.6015 135.553 19.4592C135.617 19.3389 135.706 19.2361 135.823 19.1505C136.083 18.9625 136.449 18.8683 136.922 18.8683H137.439V18.624C137.439 18.58 137.437 18.5384 137.433 18.4992L137.429 18.4633C137.407 18.312 137.353 18.1987 137.267 18.1232C137.152 18.0229 136.975 17.9728 136.737 17.9728C136.627 17.9728 136.506 17.9846 136.373 18.0078C136.209 18.0364 136.028 18.0833 135.83 18.1481L135.682 17.7285C136.1 17.578 136.487 17.503 136.845 17.503C137.092 17.503 137.3 17.5405 137.47 17.6155C137.571 17.6604 137.659 17.7191 137.733 17.7913C137.929 17.9789 138.027 18.2484 138.027 18.5991V20.1088C138.027 20.1712 138.032 20.2262 138.042 20.274ZM136.647 20.5219C136.984 20.5219 137.248 20.351 137.439 20.0085V19.2504H136.999C136.377 19.2504 136.066 19.4759 136.066 19.9269C136.066 20.1235 136.115 20.2715 136.213 20.3718C136.311 20.4721 136.456 20.5219 136.647 20.5219ZM141.54 17.578V20.8791H140.952V19.6137H140.218L139.508 20.8791H138.85L139.655 19.4824C139.259 19.2985 139.061 19 139.061 18.5865C139.061 18.2611 139.18 18.0123 139.419 17.841C139.658 17.6657 139.991 17.578 140.422 17.578H141.54ZM140.952 18.0229H140.409C140.29 18.0229 140.186 18.0339 140.096 18.056C140.002 18.0788 139.923 18.1135 139.86 18.1608C139.74 18.2484 139.681 18.3903 139.681 18.5865C139.681 18.7953 139.736 18.9458 139.847 19.0375C139.962 19.1293 140.145 19.1754 140.396 19.1754H140.952V18.0229ZM116.825 24.2593L115.802 25.7878L116.946 27.5604H116.25L115.318 26.0385H114.889V27.5604H114.302V24.2593H114.889V25.5875H115.33L116.18 24.2593H116.825ZM118.822 24.1843C119.296 24.1843 119.662 24.3389 119.921 24.648C119.991 24.7299 120.052 24.8196 120.103 24.9167C120.195 25.0916 120.258 25.2915 120.29 25.5166C120.308 25.6393 120.317 25.7694 120.317 25.9068C120.317 26.2494 120.258 26.552 120.138 26.815C120.019 27.0739 119.847 27.2766 119.621 27.4226C119.395 27.5645 119.127 27.6355 118.817 27.6355C118.343 27.6355 117.975 27.4809 117.711 27.1722C117.552 26.9867 117.442 26.7616 117.379 26.4965C117.336 26.3199 117.315 26.1254 117.315 25.9129C117.315 25.5708 117.374 25.2699 117.494 25.0109C117.613 24.7479 117.786 24.5456 118.011 24.4037C118.095 24.3495 118.184 24.3054 118.28 24.2712C118.443 24.2133 118.624 24.1843 118.822 24.1843ZM118.16 24.973C118.018 25.1834 117.947 25.497 117.947 25.9129C117.947 26.7526 118.237 27.1722 118.817 27.1722C119.395 27.1722 119.685 26.7502 119.685 25.9068C119.685 25.0676 119.397 24.648 118.822 24.648C118.527 24.648 118.306 24.7564 118.16 24.973ZM124.583 27.5604H124.009L123.856 26.0006C123.838 25.8379 123.828 25.6585 123.824 25.4619L123.82 25.205L123.817 24.8168L123.051 27.1971H122.495L121.78 24.8233C121.78 25.123 121.777 25.3751 121.772 25.5798C121.768 25.7515 121.762 25.8897 121.754 25.9945L121.633 27.5604H121.065L121.365 24.2593H122.125L122.783 26.6209L123.505 24.2593H124.277L124.583 27.5604ZM127.541 27.5604V24.7291H126.161V27.5604H125.573V24.2593H128.128V27.5604H127.541ZM131.609 26.7901C131.609 26.9235 131.632 27.0238 131.679 27.0907C131.725 27.1535 131.796 27.2012 131.889 27.2346L131.755 27.6355C131.58 27.6147 131.44 27.5666 131.333 27.4915C131.227 27.4165 131.149 27.2994 131.097 27.1408C130.962 27.3394 130.786 27.4781 130.572 27.5572C130.43 27.6094 130.271 27.6355 130.094 27.6355C129.762 27.6355 129.5 27.5437 129.309 27.3598C129.117 27.1763 129.021 26.9361 129.021 26.6396C129.021 26.2889 129.149 26.0194 129.405 25.8318C129.468 25.7857 129.538 25.7453 129.614 25.7107C129.851 25.603 130.147 25.5496 130.503 25.5496H131.021V25.3053C131.021 25.2307 131.015 25.1626 131.003 25.1014C130.978 24.9718 130.927 24.8727 130.849 24.8046C130.733 24.7042 130.557 24.6541 130.318 24.6541C130.071 24.6541 129.769 24.7124 129.411 24.8294L129.264 24.4098C129.503 24.3238 129.732 24.2626 129.952 24.2259C130.116 24.1982 130.274 24.1843 130.427 24.1843C130.823 24.1843 131.119 24.2801 131.314 24.4726C131.511 24.6602 131.609 24.9298 131.609 25.2805V26.7901ZM130.229 27.2032C130.565 27.2032 130.829 27.0323 131.021 26.6898V25.9317H130.58C129.959 25.9317 129.648 26.1572 129.648 26.6082C129.648 26.7155 129.662 26.8085 129.691 26.8868C129.716 26.952 129.75 27.0075 129.794 27.0531C129.892 27.1535 130.037 27.2032 130.229 27.2032ZM134.802 27.5604V26.1071H133.403V27.5604H132.816V24.2593H133.403V25.6438H134.802V24.2593H135.39V27.5604H134.802ZM139.22 27.5604H138.639V26.0695C138.639 25.8192 138.647 25.581 138.665 25.3555C138.681 25.13 138.696 24.982 138.71 24.911L137.297 27.5604H136.601V24.2593H137.183V25.7502C137.183 25.8701 137.18 25.9925 137.175 26.1173C137.171 26.2229 137.165 26.3301 137.157 26.4394C137.14 26.6731 137.127 26.8236 137.119 26.89L138.511 24.2593H139.22V27.5604ZM142.738 24.2593V27.5604H142.15V26.2951H141.415L140.706 27.5604H140.048L140.853 26.1637C140.677 26.0818 140.539 25.9774 140.441 25.8497C140.32 25.6911 140.259 25.4974 140.259 25.2678C140.259 25.0741 140.302 24.9073 140.386 24.7683C140.443 24.6737 140.52 24.5917 140.617 24.5224C140.855 24.347 141.189 24.2593 141.62 24.2593H142.738ZM142.15 24.7042H141.606C141.364 24.7042 141.181 24.7499 141.058 24.8421C140.938 24.9298 140.879 25.0717 140.879 25.2678C140.879 25.3612 140.89 25.4432 140.912 25.5133C140.939 25.5998 140.984 25.6683 141.044 25.7188C141.16 25.8106 141.343 25.8567 141.594 25.8567H142.15V24.7042Z" fill="#2C272B"/>
<path d="M0 12.9451L13.2006 0V38H0V12.9451Z" fill="#EE2733"/>
<path d="M25.5495 0H39.1759V38H25.5495V0Z" fill="#EE2733"/>
<path d="M64.7254 0H51.099V12.9451H64.7254V0Z" fill="#EE2733"/>
<path d="M51.099 25.0549H64.7254V38H51.099V25.0549Z" fill="#EE2733"/>
<path d="M76.6485 0H90.2749L76.6485 12.9451V0Z" fill="#EE2733"/>
<path d="M90.2749 38H76.6485V25.0549L90.2749 38Z" fill="#EE2733"/>
</svg>
