<svg width="73" height="32" viewBox="0 0 73 32" fill="none" xmlns="http://www.w3.org/2000/svg">
<path d="M51.8238 2.78315V3.9304H61.7591C62.4197 3.9304 63.4158 3.9304 64.079 4.58525C64.7422 5.24261 64.7422 6.2274 64.7422 6.88475V16.7326C64.7422 17.39 64.7422 18.3748 64.079 19.0296C63.4158 19.687 62.4197 19.687 61.7591 19.687H56.968C56.1409 19.687 55.0616 19.687 54.6481 18.7847C54.237 17.8799 54.813 17.06 55.3138 16.4052L61.7692 7.88204H51.8339L47.8497 13.1309C47.184 14.0107 46.6091 14.773 46.6091 15.7553C46.6091 16.7401 47.1437 17.45 47.8497 18.3798L48.8432 19.692C49.8368 21.0042 50.8303 22.3164 52.1466 22.9663C53.473 23.6186 55.0465 23.6186 57.1899 23.6186H61.5019C63.9882 23.6186 67.7051 23.6186 70.2015 21.1592C72.6828 18.6972 72.6828 15.0855 72.6828 13.7858V9.83661C72.6828 8.5219 72.6828 4.91268 70.2015 2.46321C67.7152 -0.00124952 63.9983 0.00624864 61.5019 0.00374919L54.643 0C53.9849 0 53.1527 -5.95917e-08 52.4895 0.657357C51.8314 1.31471 51.8314 2.13454 51.8314 2.79189" fill="#2C272B"/>
<path d="M39.6382 7.85693H49.4726L37.6209 23.6035H27.5344L39.6382 7.85693Z" fill="#2C272B"/>
<path d="M0.350042 10.6566C0.350042 10.0017 0.350042 9.1794 1.01323 8.52204C1.6739 7.86719 2.50604 7.86719 3.16671 7.86719H19.8095C21.9605 7.86719 23.5416 7.86719 24.8528 8.52204C26.1742 9.1819 27.1677 10.4941 28.1562 11.7963L29.1522 13.1085C29.8608 14.0408 30.3979 14.7507 30.3979 15.733C30.3979 16.7178 29.8179 17.4801 29.1522 18.3574L25.168 23.6063H15.2328L21.6882 15.0831C22.1849 14.4258 22.7674 13.6084 22.3513 12.7036C21.9403 11.8038 20.8636 11.8038 20.0365 11.8038H12.2446V31.4995H4.30145V11.8038H0.317261V10.6541" fill="#2C272B"/>
</svg>
